<?xml version="1.0" standalone="no"?>
<!DOCTYPE svg PUBLIC "-//W3C//DTD SVG 20010904//EN"
 "http://www.w3.org/TR/2001/REC-SVG-20010904/DTD/svg10.dtd">
<svg version="1.0" xmlns="http://www.w3.org/2000/svg"
 width="858.000000pt" height="858.000000pt" viewBox="0 0 858.000000 858.000000"
 preserveAspectRatio="xMidYMid meet">
<metadata>
Created by potrace 1.14, written by Peter Selinger 2001-2017
</metadata>
<g transform="translate(0.000000,858.000000) scale(0.100000,-0.100000)"
fill="#000000" stroke="none">
<path d="M1630 8570 c-131 -17 -157 -21 -190 -30 -19 -5 -46 -11 -60 -13 -62
-11 -254 -82 -355 -131 -370 -181 -663 -475 -841 -843 -48 -99 -118 -287 -130
-347 -2 -11 -9 -46 -15 -76 -38 -182 -38 -156 -37 -2830 0 -1498 4 -2629 9
-2675 40 -352 181 -687 402 -959 102 -125 305 -305 432 -383 200 -123 430
-215 625 -248 19 -3 49 -8 65 -11 17 -3 57 -10 90 -14 75 -10 5329 -7 5370 3
17 4 66 14 110 22 44 8 90 17 101 19 62 12 249 82 347 130 139 68 264 149 387
253 82 69 126 113 230 233 20 22 123 171 158 225 60 96 178 382 198 480 27
134 35 181 43 245 6 45 9 1114 9 2670 1 2139 -2 2614 -13 2703 -8 59 -16 110
-18 115 -3 4 -8 23 -11 42 -11 69 -67 243 -111 342 -264 599 -812 999 -1477
1078 -88 10 -5240 10 -5318 0z"/>
</g>
</svg>
